<svg width="307" height="77" viewBox="0 0 307 77" fill="none" xmlns="http://www.w3.org/2000/svg">
<path d="M32.9997 0L0 19.0526V19.2942L32.9997 38.3469L65.9995 19.2942V19.0526L32.9997 0Z" fill="#CCCCCC"/>
<path d="M66 19.2943L33.0002 38.347V76.2106L66 57.1579V19.2943V19.2943Z" fill="#808080"/>
<path d="M0.00170898 19.2943L33.0015 38.347V76.2106L0.00170898 57.1579V19.2943V19.2943Z" fill="#333333"/>
<path d="M33.0016 59.4918L51.5219 48.7987V48.6632L33.0016 37.9701L14.4801 48.6632V48.7987L33.0016 59.4918Z" fill="#CCCCCC"/>
<path d="M14.4801 48.6624L33.0016 37.9694V16.719L14.4801 27.412V48.6624V48.6624Z" fill="#808080"/>
<path d="M51.5219 48.6624L33.0004 37.9694V16.719L51.5219 27.412V48.6624V48.6624Z" fill="#333333"/>
<path d="M32.9998 22.1996L19.2262 30.1518V30.2526L32.9998 38.2048L46.7735 30.2526V30.1518L32.9998 22.1996Z" fill="#6D87D6"/>
<path d="M46.774 30.254L33.0002 38.2062V54.0099L46.774 46.0577V30.254V30.254Z" fill="#3771C8"/>
<path d="M19.2272 30.254L33.0009 38.2062V54.0099L19.2272 46.0577V30.254Z" fill="#214478"/>
<path d="M85.1406 45.9141C85.3906 45.8828 85.5703 45.8438 85.6797 45.7969V45.375L85.2812 45.0469C85.25 44.7031 85.2031 44.3125 85.1406 43.875C85.125 43.7812 85.1172 43.6875 85.1172 43.5938C85.1172 43.2969 85.2891 42.9531 85.6328 42.5625L85.5625 42.4922C85.5312 42.2266 85.4453 42.0156 85.3047 41.8594C85.2109 41.75 85.1328 41.5625 85.0703 41.2969C84.9609 40.8125 84.9062 40.4453 84.9062 40.1953L85.0703 38.3438V37.2891V36.7266L85.3984 36.3516C85.0703 36.2422 84.9062 36.1641 84.9062 36.1172C85 34.9297 85.0469 34.3281 85.0469 34.3125C85.0469 34.0938 84.9922 33.5703 84.8828 32.7422L84.9766 32.6484L84.9062 31.4766C85.0938 31.3672 85.3047 31.2891 85.5391 31.2422C85.6641 31.2109 85.7969 31.1484 85.9375 31.0547C85.875 30.8047 85.7344 30.5859 85.5156 30.3984C85.5469 30.2578 85.5625 30.1562 85.5625 30.0938C85.5625 29.9219 85.4922 29.6953 85.3516 29.4141L84.8828 29.7188C84.6484 29.1875 84.5312 28.7734 84.5312 28.4766C84.5312 28.3672 84.5703 28.1406 84.6484 27.7969L84.6016 26.4844V25.8047L84.5078 25.3359L84.5781 24.3516C84.3438 22.8984 84.2266 22.1016 84.2266 21.9609C84.2266 21.7422 84.2891 21.5156 84.4141 21.2812C84.4766 21.1562 84.5156 20.9609 84.5312 20.6953C84.6875 20.5547 84.7656 20.4219 84.7656 20.2969V20.25V20.1562L84.8594 19.5469L84.1797 19.6172C84.1797 19.2891 84.125 18.9141 84.0156 18.4922L83.9219 17.8594C83.7656 16.9688 83.6875 16.2812 83.6875 15.7969C83.6875 15.4688 83.7344 15.1094 83.8281 14.7188C83.6562 14.7656 83.3203 14.7969 82.8203 14.8125L81.6016 15.0703C81.5547 15.0703 81.4609 15.0469 81.3203 15C81.5547 14.375 81.6875 14.0625 81.7188 14.0625C82.0625 13.875 82.3047 13.7187 82.4453 13.5938V13.4766C82.7578 13.4141 82.9609 13.3672 83.0547 13.3359C83.4453 13.2266 83.6875 13.1719 83.7812 13.1719C83.8125 13.1719 84.0312 13.2109 84.4375 13.2891C84.5625 13.3203 84.6875 13.3359 84.8125 13.3359C85.0156 13.3359 85.5 13.1641 86.2656 12.8203C86.3281 12.8047 86.6719 12.7969 87.2969 12.7969C87.4219 12.7969 87.9609 12.7344 88.9141 12.6094C88.9922 12.5937 89.0469 12.5859 89.0781 12.5859C89.2969 12.5859 89.6562 12.6562 90.1562 12.7969C90.4062 12.875 90.6406 12.9141 90.8594 12.9141C90.9844 12.9141 91.2812 12.875 91.75 12.7969C91.9688 13.1875 92.1562 13.4062 92.3125 13.4531C92.4531 13.4844 92.7188 13.5 93.1094 13.5L93.2734 13.1953C93.6641 13.1016 94.0078 12.9609 94.3047 12.7734C95.0859 12.8672 95.7891 12.9219 96.4141 12.9375C97.2109 12.9687 98.1484 13.0859 99.2266 13.2891H100.094L101.547 13.4531C101.906 13.4688 102.117 13.4844 102.18 13.5C102.352 13.5469 102.562 13.6875 102.812 13.9219C103.109 13.875 103.328 13.8516 103.469 13.8516C103.781 13.8516 104.773 14.1719 106.445 14.8125C107.211 15.0469 107.648 15.2266 107.758 15.3516C108.07 15.7109 108.227 16.1953 108.227 16.8047C108.227 17.5391 107.812 18.5156 106.984 19.7344L106.328 20.7891C105.453 21.5547 104.883 22.1172 104.617 22.4766H103.609L103.516 22.5469V23.2734C103.188 23.4609 102.977 23.5781 102.883 23.625C102.086 24.0938 101.398 24.4219 100.82 24.6094L99.9766 25.0078C99.3672 25.1172 99 25.1953 98.875 25.2422C98.75 25.3047 98.6016 25.4062 98.4297 25.5469C98.7422 25.7031 98.9844 25.7969 99.1562 25.8281C99.1875 25.8438 99.7109 25.8828 100.727 25.9453C101.164 25.9766 101.695 26.1016 102.32 26.3203C103.195 26.6172 103.859 26.8203 104.312 26.9297C104.656 26.9922 104.992 27.1172 105.32 27.3047C105.258 27.5547 105.227 27.7734 105.227 27.9609C105.227 28.1953 105.438 28.4141 105.859 28.6172C105.984 28.4766 106.18 28.1094 106.445 27.5156C106.805 27.5312 107.188 27.6172 107.594 27.7734C108.344 28.0703 108.852 28.2734 109.117 28.3828C109.289 28.4141 109.438 28.6328 109.562 29.0391L110.195 29.3203L110.266 29.5781L110.617 29.4141L110.852 29.6719C111.055 29.4688 111.25 29.3672 111.438 29.3672C111.797 29.3672 112.32 29.5859 113.008 30.0234C114.242 30.8203 115.125 31.4062 115.656 31.7812C115.906 31.9688 116.211 32.2891 116.57 32.7422C116.508 32.8828 116.477 32.9844 116.477 33.0469C116.477 33.1562 116.539 33.3047 116.664 33.4922C116.852 33.3047 117.008 33.2109 117.133 33.2109C117.195 33.2109 117.867 33.6797 119.148 34.6172L119.453 35.0625C119.766 35.2344 119.969 35.3516 120.062 35.4141C120.109 35.4609 120.312 35.7344 120.672 36.2344C121.141 36.7969 121.461 37.2344 121.633 37.5469C121.242 37.875 121.047 38.1875 121.047 38.4844C121.047 38.5625 121.055 38.6641 121.07 38.7891L121.867 38.6719C122.18 39.0938 122.414 39.4844 122.57 39.8438C122.648 40.0469 122.812 40.6406 123.062 41.625C123.406 42.375 123.586 42.9062 123.602 43.2188V43.2422L123.531 44.1094V45.0234C123.516 45.3359 123.234 45.7812 122.688 46.3594C122.703 46.4844 122.82 46.6016 123.039 46.7109C123.023 46.8984 123.016 47.0625 123.016 47.2031C123.016 47.2812 123.023 47.3594 123.039 47.4375C123.07 47.6875 123.086 47.8516 123.086 47.9297C123.086 48.0234 122.594 48.7422 121.609 50.0859L121.094 50.4609L120.555 50.9531C120.148 51.2188 119.906 51.3828 119.828 51.4453C119.781 51.5078 119.641 51.75 119.406 52.1719C119 52.7188 118.18 53.2344 116.945 53.7188L116.641 53.4375C116.172 53.4844 115.844 53.5469 115.656 53.625C115.469 53.7188 115.25 53.9531 115 54.3281C115.328 54.3594 115.492 54.4922 115.492 54.7266C115.492 54.8203 115.445 54.9297 115.352 55.0547C115.227 55.2266 114.617 55.4141 113.523 55.6172C113.195 55.6797 112.484 55.9609 111.391 56.4609C111.156 56.5547 110.938 56.6406 110.734 56.7188C110.094 56.9531 109.719 57.1016 109.609 57.1641C109.422 57.2578 109.289 57.3047 109.211 57.3047C109.117 57.3047 108.969 57.2344 108.766 57.0938L108.062 57.3281L107.852 57.6797C107.539 57.7422 107.336 57.7812 107.242 57.7969C106.773 57.875 106.461 57.9531 106.305 58.0312C105.898 58.2656 105.695 58.3828 105.695 58.3828C105.086 58.2109 104.75 58.125 104.688 58.125C104.609 58.125 104.445 58.2422 104.195 58.4766C104.117 58.5703 103.945 58.6328 103.68 58.6641C103.023 58.7734 102.516 58.9297 102.156 59.1328L101.57 58.5938H101.43C101.242 58.5781 101.047 58.5391 100.844 58.4766L100.375 59.1328L95.7812 59.2734L94.7734 59.0156L94.9375 58.3125L94.2812 58.1719C94.1094 58.375 93.875 58.5234 93.5781 58.6172C93.0781 58.7734 92.7891 58.8516 92.7109 58.8516C92.6953 58.8516 92.1094 58.7188 90.9531 58.4531L90.5547 58.2422L89.7578 58.2891C89.3828 58.1328 89.0391 58.0469 88.7266 58.0312C88.5234 58.0156 88.1094 57.9844 87.4844 57.9375L86.8516 58.0078L85.9375 57.9375L83.8047 57.8438L83.6875 57.8203C82.9688 57.9141 82.5391 57.9609 82.3984 57.9609C81.5859 57.9609 81.1797 57.7812 81.1797 57.4219C81.1797 57.3594 81.2188 57.2969 81.2969 57.2344C81.5938 56.9531 81.8984 56.75 82.2109 56.625L84.0156 55.9219C84.1719 55.8594 84.3281 55.6953 84.4844 55.4297C84.6094 55.1953 84.6719 55.0234 84.6719 54.9141L84.625 54.2578L86.6875 53.6719L84.9766 53.2031C84.7266 53.1406 84.6016 52.9531 84.6016 52.6406C84.6016 52.5625 84.7031 52.3281 84.9062 51.9375L84.9297 50.6016V50.2266C84.9297 50.0859 84.7969 49.7344 84.5312 49.1719L86.7812 48.2109L84.5781 47.5078C84.7656 47.2891 84.8672 47.1641 84.8828 47.1328C84.9297 47.0859 84.9688 46.9062 85 46.5938C85 46.4688 85.0469 46.2422 85.1406 45.9141ZM86.9922 19.6641H87.0859L87.2266 19.5938C87.3828 19.9062 87.5859 20.1719 87.8359 20.3906V24.3281L87.7188 24.9844C88.1094 25.0781 88.3672 25.1406 88.4922 25.1719C88.6172 25.2031 88.7109 25.2188 88.7734 25.2188L89.3125 25.1719H89.3359C89.3516 25.1719 89.625 25.2109 90.1562 25.2891C90.8125 25.3203 91.4844 25.3672 92.1719 25.4297C92.1094 25.6797 92.0781 25.8828 92.0781 26.0391C92.0781 26.5391 92.1953 26.7891 92.4297 26.7891C92.5703 26.7891 92.9297 26.3984 93.5078 25.6172V25.2656L97.7734 24.3984C97.9609 24.3516 98.3047 24.1641 98.8047 23.8359L99.7656 23.5078L100.586 22.9453C101.742 22.2734 102.523 21.75 102.93 21.375C103.523 20.7969 103.836 20.4531 103.867 20.3438L104.289 19.1719C104.539 18.5156 104.664 18.1484 104.664 18.0703C104.664 17.8828 104.523 17.6641 104.242 17.4141L104.547 16.7109C104.406 16.6484 104.305 16.6172 104.242 16.6172C104.211 16.6172 103.961 16.7109 103.492 16.8984L102.461 15.7734C102.305 15.7891 102.188 15.7969 102.109 15.7969C101.906 15.7969 101.609 15.75 101.219 15.6562C101.062 15.4062 100.969 15.2734 100.938 15.2578L98.5938 14.8125L97.7266 14.5312L96.9766 14.6484L96.5312 14.6016H95.8984L95.0312 14.3906L94.1172 14.3438L93.3203 14.2969L91.3281 14.5781L89.5469 14.7422C89.0625 14.8516 88.6641 14.9062 88.3516 14.9062C88.2578 14.9062 88.0703 14.9062 87.7891 14.9062C87.6328 15.25 87.5469 15.4453 87.5312 15.4922L87.3672 18.2109C87.3516 18.4609 87.1484 18.7422 86.7578 19.0547L86.8047 19.125C86.8984 19.2812 86.9609 19.4609 86.9922 19.6641ZM87.2969 49.3359L87.5078 50.1094L88.2344 49.9922C88.4219 50.4297 88.5156 50.8125 88.5156 51.1406V51.2578C88.5156 51.4453 88.5 51.6641 88.4688 51.9141C88.4219 52.1484 88.3984 52.2734 88.3984 52.2891C88.6172 53.4453 88.7266 54.0547 88.7266 54.1172C88.7266 54.4453 88.5391 54.7969 88.1641 55.1719C88.0078 55.125 87.8672 55.1016 87.7422 55.1016C87.6484 55.1016 87.5391 55.1797 87.4141 55.3359C87.7891 55.5859 88.2188 55.75 88.7031 55.8281C89.125 55.875 89.5078 55.9922 89.8516 56.1797L89.9453 56.6484C90.2109 56.6016 90.4375 56.4531 90.625 56.2031C91.1562 56.4531 91.75 56.6406 92.4062 56.7656L93.2031 57.0938L93.9297 57.1875C95.8359 57.4688 97.3281 57.6094 98.4062 57.6094C99.3125 57.6094 100.586 57.4375 102.227 57.0938L102.695 57.4688C102.898 57.2188 103.039 57.0859 103.117 57.0703L104.148 56.9297C104.32 56.9141 104.578 56.7422 104.922 56.4141C105.5 56.3984 105.867 56.3672 106.023 56.3203L107.336 55.9922C108.023 55.8516 108.625 55.6484 109.141 55.3828C109.453 55.2266 109.688 55.1484 109.844 55.1484C109.906 55.1484 110.031 55.1797 110.219 55.2422C110.359 55.0703 110.562 54.9375 110.828 54.8438C112.594 54.0781 113.844 53.3594 114.578 52.6875C114.734 52.5625 115.422 52.1719 116.641 51.5156C116.719 51.4688 116.883 51.2109 117.133 50.7422C117.492 50.3047 117.727 50.0234 117.836 49.8984C118.008 49.7109 118.383 49.5156 118.961 49.3125L119.008 48.8203C120.445 48.5859 121.164 48.4141 121.164 48.3047C121.164 48.1953 120.422 48.0547 118.938 47.8828C119.172 47.4297 119.328 47.125 119.406 46.9688C119.422 46.8906 119.516 46.4688 119.688 45.7031C119.781 45.4375 119.836 45.2031 119.852 45L119.758 44.9062L120.18 44.5781C120.008 44.3125 119.922 44.1406 119.922 44.0625V42.9141L119.453 42.0703L119.477 41.3906C119.477 40.9219 118.992 40.0625 118.023 38.8125C117.648 38.3125 116.883 37.4922 115.727 36.3516C115.758 36.1797 115.773 36.0312 115.773 35.9062C115.773 35.7812 115.719 35.6641 115.609 35.5547C115.453 35.4141 115.352 35.3438 115.305 35.3438H115.047C114.734 35.2031 114.43 35.0547 114.133 34.8984C113.539 34.5703 113.18 34.3672 113.055 34.2891C112.961 34.2266 112.844 34.0703 112.703 33.8203C112.688 33.8047 112.633 33.7656 112.539 33.7031C112.398 33.625 112.258 33.5312 112.117 33.4219C111.805 33.1875 111.484 33.0234 111.156 32.9297L110.664 32.625C110.398 32.4844 110.242 32.3906 110.195 32.3438C110.164 32.3125 110.031 32.0312 109.797 31.5C109.766 31.4375 109.703 31.4062 109.609 31.4062C109.562 31.4062 109.289 31.5156 108.789 31.7344C108.742 31.75 108.703 31.7578 108.672 31.7578C108.469 31.7578 108.242 31.6875 107.992 31.5469C107.68 31.3438 107.305 31.1641 106.867 31.0078L106.398 30.7734L104.289 30.1406L102.836 29.3672C102.398 29.1953 102.055 29.0078 101.805 28.8047C101.273 29.0547 100.961 29.1797 100.867 29.1797C100.867 29.1797 100.43 29.0391 99.5547 28.7578L98.7109 28.4297L97.75 28.2891L96.9766 28.1016L96.5312 28.0312L95.6641 27.8438C94.3359 27.7188 93.6484 27.6562 93.6016 27.6562L92.3594 27.7031L90.4375 27.6328C89.7344 27.6328 89.0234 27.9609 88.3047 28.6172C88.3516 28.9922 88.4531 29.5703 88.6094 30.3516C88.625 30.4141 88.6328 30.4844 88.6328 30.5625C88.6328 30.7344 88.5625 31.0234 88.4219 31.4297H88.375C88 31.4297 87.7422 31.4844 87.6016 31.5938C87.6797 32.1406 87.7344 32.4609 87.7656 32.5547C87.7969 32.6328 87.9609 32.8359 88.2578 33.1641C88.1953 33.3984 88.1562 33.6562 88.1406 33.9375V33.9844C88.1406 34.3125 88.1406 34.5312 88.1406 34.6406C88.1406 34.75 88.1406 34.8125 88.1406 34.8281C88.1406 35 88.1953 35.4219 88.3047 36.0938C88.3359 36.3594 88.3516 36.6094 88.3516 36.8438C88.3516 37.0469 88.3359 37.3359 88.3047 37.7109L88.1875 39.0938L88.1406 39.5859L88.375 40.4766L88.4219 41.625C88.5312 42.2656 88.5859 42.6875 88.5859 42.8906C88.5859 43.1875 88.5156 43.6953 88.375 44.4141H88L88.1172 45.5859C88.5234 45.8984 88.7266 46.2109 88.7266 46.5234L88.7031 48.0938C88.7031 48.2344 88.7109 48.4609 88.7266 48.7734L88.5859 48.9141H88.4688L88.375 49.0078V49.1484C88.1406 49.1328 87.9453 49.125 87.7891 49.125C87.5547 49.125 87.3906 49.1953 87.2969 49.3359ZM128.5 34.8516C128.5 34.6328 128.734 34.3359 129.203 33.9609C130.234 33.1641 131.125 32.6406 131.875 32.3906L132.578 33.1172C132.422 33.5078 132.297 34.0547 132.203 34.7578C132.109 35.3359 132.062 35.6875 132.062 35.8125V36.6797L131.664 37.2422C131.664 37.6328 131.836 38.0078 132.18 38.3672C132.086 38.5391 132.039 38.6406 132.039 38.6719L132.086 39.8203C132.086 39.8203 132.078 39.9062 132.062 40.0781C132.047 40.1875 132.039 40.3672 132.039 40.6172L131.922 45.0938C131.938 45.3281 132.039 45.8672 132.227 46.7109L132.273 47.6953C132.367 48.1641 132.414 48.4375 132.414 48.5156C132.414 48.8438 132.273 49.1406 131.992 49.4062C131.914 49.4844 131.617 49.6875 131.102 50.0156C130.32 50.625 129.875 50.9531 129.766 51C129.609 51.0625 129.469 51.0938 129.344 51.0938C129.156 51.0938 128.969 51 128.781 50.8125C128.844 50.4219 128.883 50.1641 128.898 50.0391C128.914 49.8516 129 49.5078 129.156 49.0078L129.18 47.8594L129.344 45.5625L129.32 45.1406C129.336 44.8906 129.461 44.7656 129.695 44.7656C129.758 44.7656 129.836 44.7734 129.93 44.7891C130.008 44.5391 130.047 44.3672 130.047 44.2734C130.047 44.1484 130 43.9062 129.906 43.5469C129.859 43.3906 129.812 43.1719 129.766 42.8906L129.367 42.5859C129.414 42.2422 129.438 41.9844 129.438 41.8125C129.438 41.7344 129.43 41.6172 129.414 41.4609C129.414 41.3359 129.414 41.2266 129.414 41.1328C129.414 40.9297 129.492 40.7031 129.648 40.4531C129.492 40.2656 129.414 40.0703 129.414 39.8672V39.6797V39.5156L129.367 38.9766C130.383 38.7891 130.891 38.625 130.891 38.4844C130.891 38.4688 130.875 38.4453 130.844 38.4141C130.609 38.2109 130.32 38.1094 129.977 38.1094C129.727 38.1094 129.422 38.125 129.062 38.1562C129.109 37.9219 129.133 37.7656 129.133 37.6875C129.133 37.6562 129.07 36.8828 128.945 35.3672C128.93 35.1797 128.781 35.0078 128.5 34.8516ZM128.922 25.4062V25.3828C128.891 24.8359 129.289 24.2422 130.117 23.6016C130.305 23.4609 130.508 23.2578 130.727 22.9922C130.742 22.9766 130.898 22.8516 131.195 22.6172C131.773 21.7578 132.133 21.2812 132.273 21.1875C132.508 21.0156 132.703 20.9297 132.859 20.9297C132.922 20.9297 133.102 21.0469 133.398 21.2812C133.695 21.5 133.844 21.7656 133.844 22.0781C133.844 22.3281 133.703 22.5469 133.422 22.7344C132.703 23.25 132.016 23.8125 131.359 24.4219L130.703 24.8438L129.883 25.4062C129.445 25.6406 129.195 25.7578 129.133 25.7578C128.992 25.7578 128.922 25.6406 128.922 25.4062ZM137.805 34.3594C137.93 33.75 138.141 33.4453 138.438 33.4453H138.461L139.609 33.5156H139.656C140.531 33.3906 141.031 33.3203 141.156 33.3047C141.156 33.0234 141.156 32.8359 141.156 32.7422C141.156 31.2734 141.125 30.0703 141.062 29.1328C141.031 28.7266 140.938 28.3594 140.781 28.0312L140.547 27.5391C140.484 27.4141 140.453 27.2812 140.453 27.1406C140.453 26.9062 140.641 26.625 141.016 26.2969C141.594 25.7656 142.328 25.4141 143.219 25.2422C143.422 24.8203 143.641 24.6094 143.875 24.6094C143.969 24.6094 144.047 24.6484 144.109 24.7266C144.328 24.9609 144.438 25.2656 144.438 25.6406C144.438 25.6562 144.367 26.8906 144.227 29.3438C144.039 29.9844 143.922 30.3594 143.875 30.4688C143.812 30.6875 143.633 30.9141 143.336 31.1484C143.336 31.4609 143.383 31.7656 143.477 32.0625H144.016L143.875 33.2578C144.266 33.2891 145.078 33.4766 146.312 33.8203C146.391 33.8359 146.656 33.8438 147.109 33.8438C147.391 33.8438 147.852 33.75 148.492 33.5625L150.039 33.4219C150.836 33.1094 151.305 32.9531 151.445 32.9531C151.648 32.9531 151.898 32.9766 152.195 33.0234C152.164 33.4609 152.117 33.7734 152.055 33.9609C151.992 34.1953 151.5 34.5938 150.578 35.1562C150.359 35.2812 150.203 35.3984 150.109 35.5078C149.875 35.7891 149.75 35.9297 149.734 35.9297C149.656 35.9922 149.469 36.0234 149.172 36.0234C148.938 36.0234 148.766 35.9922 148.656 35.9297L147.695 35.4141L147.109 35.2734L146.406 34.7578L145.211 35.6719L144.18 35.5312C144.102 35.5312 143.945 35.6094 143.711 35.7656C143.836 36.5156 143.898 37.1484 143.898 37.6641C143.898 37.9141 143.891 38.2812 143.875 38.7656C143.297 38.8594 143.008 39.0938 143.008 39.4688C143.008 39.6094 143.039 39.7812 143.102 39.9844C143.445 40.0156 143.734 40.0625 143.969 40.125L143.922 43.0547C143.688 42.9922 143.492 42.9609 143.336 42.9609C143.055 42.9609 142.914 43.0781 142.914 43.3125C142.914 43.5 142.984 43.7266 143.125 43.9922C143.344 43.8516 143.531 43.7812 143.688 43.7812C143.922 43.7812 144.039 43.9297 144.039 44.2266L143.969 45.1641V45.2109C144 45.8516 144.023 46.3125 144.039 46.5938C144.07 46.8906 144.164 47.1875 144.32 47.4844L144.602 47.9766C144.633 48.0391 144.648 48.1328 144.648 48.2578C144.648 48.3984 144.633 48.5781 144.602 48.7969C145.086 49.0781 145.625 49.2188 146.219 49.2188C146.719 49.2188 147.219 49.0938 147.719 48.8438C148.125 48.625 148.344 48.5 148.375 48.4688L149.664 47.2969C150.305 46.7656 150.695 46.5 150.836 46.5C150.977 46.5 151.172 46.5703 151.422 46.7109C151.375 47.0078 151.344 47.2109 151.328 47.3203C151.219 48.1328 151.109 48.6094 151 48.75C150.891 48.875 150.414 49.0703 149.57 49.3359C148.93 49.6641 147.961 50.0469 146.664 50.4844L145.867 50.7422C145.336 51.0391 145.031 51.1875 144.953 51.1875C144.812 51.1875 144.656 51.0469 144.484 50.7656L144.062 50.6484L143.805 51.2344C143.586 51.2656 143.398 51.2812 143.242 51.2812C142.836 51.2812 142.352 51.0156 141.789 50.4844C141.539 50.2344 141.336 49.9766 141.18 49.7109C141.164 49.6953 141.102 49.4922 140.992 49.1016C140.82 48.5859 140.734 48.2891 140.734 48.2109C140.734 48.0703 140.75 47.8438 140.781 47.5312C140.812 47.2812 140.828 46.7578 140.828 45.9609C140.844 45.4453 140.984 45.0547 141.25 44.7891C141.156 44.4922 141.109 44.1328 141.109 43.7109C141.031 42.9922 140.984 41.625 140.969 39.6094C141.344 39.375 141.531 39.1484 141.531 38.9297C141.531 38.8047 141.516 38.6562 141.484 38.4844L140.805 38.3203L140.758 38.1094V38.0859C140.758 38.0078 140.781 37.8438 140.828 37.5938C140.922 37.1875 140.969 36.4844 140.969 35.4844C140.328 35.3438 139.859 35.2734 139.562 35.2734C139.469 35.2734 139.062 35.3203 138.344 35.4141L137.852 35.4609C137.414 35.6016 137.18 35.6719 137.148 35.6719C136.93 35.6719 136.82 35.5703 136.82 35.3672C136.82 35.0547 137.148 34.7188 137.805 34.3594ZM157.891 44.5547C158.312 44.3203 158.523 44.0469 158.523 43.7344C158.523 43.5781 158.391 43.4375 158.125 43.3125C158.094 42.6406 158.078 42.0547 158.078 41.5547C158.078 41.2734 158.094 40.9766 158.125 40.6641C158.234 39.7891 158.289 39.2891 158.289 39.1641C158.289 39.0703 158.266 38.8828 158.219 38.6016L158.852 38.4375C158.867 38.3438 158.875 38.2656 158.875 38.2031C158.875 38.1406 158.805 37.9844 158.664 37.7344C158.523 37.4531 158.414 37.1719 158.336 36.8906C158.586 36.7656 158.75 36.6406 158.828 36.5156C158.906 36.375 158.961 36.1328 158.992 35.7891C158.742 35.4609 158.578 35.2188 158.5 35.0625L159.859 34.125L159.789 34.1016L158.383 33.6094L159.016 31.7812C158.906 31.2656 158.609 31.0234 158.125 31.0547C158.312 30.3516 158.406 29.9219 158.406 29.7656C158.406 29.7344 158.383 29.5625 158.336 29.25L158.312 28.5234C158.266 27.8984 158.242 27.3828 158.242 26.9766C158.242 26.5703 158.367 26.2266 158.617 25.9453C158.273 25.4141 158.102 24.9453 158.102 24.5391C158.102 24.3203 158.172 24.0547 158.312 23.7422C158.094 23.4766 157.984 23.2734 157.984 23.1328C157.984 23.0547 158.008 22.9297 158.055 22.7578C158.102 22.6328 158.133 22.2109 158.148 21.4922C158.148 21.3984 158.164 21.1953 158.195 20.8828H157.891C157.922 20.5859 157.938 20 157.938 19.125C158.141 18.5312 158.242 18.1953 158.242 18.1172C158.242 17.9453 158.109 17.5469 157.844 16.9219C157.531 16.9062 157.289 16.8281 157.117 16.6875C157.133 16.4844 157.227 16.2812 157.398 16.0781C157.836 15.5156 158.375 15.0469 159.016 14.6719C159.875 14.2031 160.453 13.8125 160.75 13.5H161.148C161.758 14.25 162.133 14.8125 162.273 15.1875C162.414 15.6094 162.523 15.8516 162.602 15.9141L162.977 16.2422C163.008 16.2891 163.039 16.5391 163.07 16.9922C163.227 17.5078 163.352 17.9375 163.445 18.2812C162.539 18.3906 162.086 18.5625 162.086 18.7969C162.086 19.0469 162.359 19.2812 162.906 19.5C163.25 19.2969 163.57 19.1562 163.867 19.0781L163.938 19.1484C163.984 19.9141 164.133 20.5156 164.383 20.9531C164.586 21.2656 164.688 21.5 164.688 21.6562C164.688 21.6562 164.688 21.6641 164.688 21.6797C164.641 21.9766 164.617 22.2266 164.617 22.4297C164.617 22.7266 164.867 23 165.367 23.25C165.414 23.5625 165.492 23.8594 165.602 24.1406C165.633 24.2188 165.648 24.3047 165.648 24.3984C165.648 24.5547 165.633 24.7266 165.602 24.9141C166.148 25.2578 166.422 25.5547 166.422 25.8047C166.422 26.0703 166.148 26.375 165.602 26.7188L165.93 27.8672L166.117 27.9141C166.445 27.4766 166.703 27.2578 166.891 27.2578C167.031 27.2578 167.211 27.2812 167.43 27.3281C167.43 27.3281 167.453 27.3984 167.5 27.5391C167.516 27.5703 167.523 27.6797 167.523 27.8672C167.523 27.8984 167.523 27.9375 167.523 27.9844C167.508 28.0469 167.5 28.0781 167.5 28.0781C167.5 28.2188 167.562 28.3906 167.688 28.5938C168.328 29.7031 168.688 30.4609 168.766 30.8672C168.828 31.1641 168.922 31.5078 169.047 31.8984C169.062 31.9453 169.07 31.9922 169.07 32.0391C169.07 32.2109 169.039 32.4141 168.977 32.6484H168.625C168.609 32.7109 168.602 32.75 168.602 32.7656C168.602 32.9062 168.68 33.0938 168.836 33.3281L169.188 33.2109C169.328 33.2109 169.43 33.2656 169.492 33.375C169.555 33.4688 169.625 33.7578 169.703 34.2422L170.289 34.4531C170.367 34.8438 170.531 35.2344 170.781 35.625C171.125 36.1719 171.484 36.9766 171.859 38.0391C171.875 38.0859 172.008 38.3203 172.258 38.7422C172.523 39.2422 172.719 39.8203 172.844 40.4766L172.914 40.7812L172.844 41.3906C172.844 41.4531 172.984 41.6172 173.266 41.8828C173.375 41.9766 173.5 42.1328 173.641 42.3516L174.203 42.4922C174.328 43.1641 174.461 43.6328 174.602 43.8984L175.047 44.0625C175.219 44.5938 175.562 45.3125 176.078 46.2188L177.133 48.5625L177.602 49.2656C177.883 49.8125 178.078 50.125 178.188 50.2031C178.234 50.2344 178.336 50.25 178.492 50.25C178.727 49.9375 178.992 49.5 179.289 48.9375L180.016 47.6016L180.273 47.0859L180.672 46.3828L180.859 45.6328C181.375 44.7891 181.648 44.3359 181.68 44.2734C181.742 44.1953 181.977 44.0234 182.383 43.7578C182.586 43.6172 182.688 43.4766 182.688 43.3359C182.688 43.2891 182.68 43.2422 182.664 43.1953C182.492 42.6172 182.406 42.3203 182.406 42.3047C182.406 42.3047 182.547 42.1094 182.828 41.7188C182.922 41.5938 183.031 41.3672 183.156 41.0391L183.766 41.1094C183.922 40.9062 184 40.75 184 40.6406C184 40.5156 183.984 40.3516 183.953 40.1484C183.938 39.9922 183.93 39.8516 183.93 39.7266C183.93 39.4297 183.969 39.1875 184.047 39L185.148 36.1875C185.367 35.3281 185.516 34.8359 185.594 34.7109C185.719 34.5234 185.961 34.2969 186.32 34.0312C186.211 33.6719 186.156 33.4297 186.156 33.3047C186.156 33.1016 186.5 32.2422 187.188 30.7266L187.656 29.2266C188.109 28.3047 188.359 27.7891 188.406 27.6797C188.516 27.4766 188.789 27.3594 189.227 27.3281C189.07 27.0156 188.961 26.6562 188.898 26.25L188.875 26.0156L189.086 25.125L189.062 24.6562L191.477 21.0234C191.539 20.4297 191.594 20.0938 191.641 20.0156C191.984 19.4688 192.219 19.1406 192.344 19.0312C192.375 19 192.742 18.75 193.445 18.2812L193.68 17.9766L193.727 17.9297C193.664 17.7422 192.977 17.5859 191.664 17.4609H191.078L190.328 16.4062C190.578 15.875 190.703 15.6094 190.703 15.6094C190.719 15.5937 190.859 15.5234 191.125 15.3984L191.898 14.9062L192.625 14.625C193.234 14.2656 193.656 14.0469 193.891 13.9688C194.078 13.9062 194.531 13.8047 195.25 13.6641C195.375 14.2734 195.438 14.8203 195.438 15.3047L195.531 15.8906L195.555 16.2422L195.648 16.875L195.555 18.2109V19.0078L195.438 19.8281L195.484 20.5078L195.461 20.8594C195.461 20.9375 195.516 21.0781 195.625 21.2812C195.438 21.25 195.266 21.2344 195.109 21.2344C194.859 21.2344 194.734 21.3438 194.734 21.5625C194.734 21.7969 194.992 21.9609 195.508 22.0547L195.156 22.8281L195.25 22.9219H195.531L195.695 23.0625C195.695 23.4375 195.688 23.6797 195.672 23.7891C195.656 24.1641 195.648 24.4141 195.648 24.5391C195.648 24.5859 195.711 25.2031 195.836 26.3906C195.836 26.4219 195.836 26.4609 195.836 26.5078C195.836 26.6953 195.664 27.0625 195.32 27.6094C195.289 27.6719 195.273 27.9219 195.273 28.3594C195.273 28.5156 195.328 28.6797 195.438 28.8516L196.07 28.7812L196.328 29.0391C196.203 29.4141 196.141 29.8359 196.141 30.3047C196.141 30.5703 196.188 31.0469 196.281 31.7344L196.422 35.9766C196.422 36.1016 196.438 36.2812 196.469 36.5156C196.516 36.9062 196.539 37.2266 196.539 37.4766C196.539 37.6016 196.508 37.75 196.445 37.9219L195.812 37.875C195.812 37.9688 195.812 38.0469 195.812 38.1094C195.812 38.2812 195.734 38.5234 195.578 38.8359C195.891 39.1328 196.203 39.3047 196.516 39.3516C196.625 39.6484 196.688 39.9844 196.703 40.3594L196.984 42.1641L197.148 43.2422L197.312 43.5469C197.109 44.2188 197 44.5859 196.984 44.6484C196.953 44.8047 196.906 45.0078 196.844 45.2578L197.711 45.9141C197.727 46.2266 197.734 46.5 197.734 46.7344C197.734 46.8594 197.727 46.9844 197.711 47.1094C197.648 47.4531 197.617 47.6328 197.617 47.6484C197.617 47.8203 197.695 48.0703 197.852 48.3984L197.125 48.5391L196.82 49.4766C196.977 49.6016 197.18 49.7109 197.43 49.8047C197.648 49.8672 197.805 50.1406 197.898 50.625C197.977 51.1094 198.023 51.3516 198.039 51.3516L198.32 51.8906C198.352 52.0312 198.477 52.5859 198.695 53.5547C198.711 54.2734 198.781 55.0391 198.906 55.8516C198.688 56.0703 198.328 56.4453 197.828 56.9766C196.922 57.6484 196.023 57.9688 195.133 57.9375C195.055 57.9375 194.891 57.9922 194.641 58.1016C194.484 58.1641 194.352 58.1953 194.242 58.1953C194.164 58.1953 194.039 58.1406 193.867 58.0312C194.055 57.5312 194.172 57 194.219 56.4375L194.289 55.9219C194.148 55.4531 194.078 55.2031 194.078 55.1719C194.078 54.9219 194.289 54.6953 194.711 54.4922L194.664 53.8828C194.195 53.4609 193.961 53.0938 193.961 52.7812C193.961 52.625 193.984 52.4609 194.031 52.2891C194.312 51.2266 194.453 50.6719 194.453 50.625L193.938 49.1016V49.0547L194.031 47.2266V47.2031C194.047 46.8906 193.969 46.2812 193.797 45.375C193.734 45.0781 193.703 44.8594 193.703 44.7188L194.242 44.6719C194.18 44.1406 194.133 43.8281 194.102 43.7344C194.07 43.6094 193.891 43.5156 193.562 43.4531C193.5 43.125 193.406 42.7266 193.281 42.2578C193.203 41.9609 193.164 41.4922 193.164 40.8516C193.164 40.7734 193.172 40.5078 193.188 40.0547V40.0312C193.188 39.9219 193.188 39.8359 193.188 39.7734C193.172 39.7266 193.164 39.7031 193.164 39.7031C193.352 39.1719 193.445 38.8906 193.445 38.8594C193.445 38.8281 193.398 38.6016 193.305 38.1797L193.188 37.6172L193 37.1953L192.836 34.7812L192.672 33.8672L192.836 31.8516L192.719 31.0781L194.43 30.4219L192.719 30C192.875 29.7344 192.953 29.5625 192.953 29.4844C192.953 28.9062 192.711 28.5391 192.227 28.3828C192.211 28.3516 192.203 28.3359 192.203 28.3359C192.203 28.0078 192.477 27.7969 193.023 27.7031L194.125 27.5156L192.273 26.4844L192.25 25.3125C192.234 25.1719 192.102 24.9688 191.852 24.7031H191.641C191.547 25.0156 191.477 25.2188 191.43 25.3125C191.18 25.9375 191.047 26.2578 191.031 26.2734C191 26.2734 190.984 26.5078 190.984 26.9766L190.398 27.4688C190.398 27.5781 190.398 27.6719 190.398 27.75C190.398 27.9375 190.219 28.3516 189.859 28.9922L189.555 29.8125L189.227 30.6094L188.969 31.4531L188.477 32.1562L188.336 32.9297L188.148 33.2812L188.031 34.1719L187.023 36.5391L186.555 37.9219C186.477 38.0156 186.312 38.1641 186.062 38.3672L185.969 39.0469L185.383 39.375C185.367 39.7344 185.242 40.3516 185.008 41.2266L184.375 41.5312C184.422 41.8125 184.445 42.0469 184.445 42.2344C184.445 42.9844 184.117 43.6094 183.461 44.1094C183.508 44.25 183.531 44.375 183.531 44.4844C183.531 44.5312 183.484 44.625 183.391 44.7656C183.328 44.8438 183.172 45.1484 182.922 45.6797L182.359 46.7344L181.75 48.3984L181.422 49.1484L181.117 49.8984L180.719 50.5312L180.461 51.0938C180.242 51.4375 180.078 51.8438 179.969 52.3125C179.391 53.7656 178.977 54.8672 178.727 55.6172C178.508 55.6172 178.344 55.6172 178.234 55.6172C178.156 55.6172 178.086 55.6172 178.023 55.6172C177.711 55.6328 177.531 55.6406 177.484 55.6406C177.312 55.6406 177.172 55.5781 177.062 55.4531C176.938 55.3125 176.625 54.6484 176.125 53.4609C176.047 53.3203 175.75 52.9219 175.234 52.2656C175.062 52.0312 174.93 51.6953 174.836 51.2578C174.758 50.9609 174.664 50.6406 174.555 50.2969L174.109 50.2266C173.953 49.8047 173.75 49.2031 173.5 48.4219C173.391 48.0625 173.039 47.4141 172.445 46.4766C172.227 46.1328 172.117 45.75 172.117 45.3281C172.117 45.2656 172.195 45.0156 172.352 44.5781C172.367 44.5469 172.375 44.5078 172.375 44.4609C172.375 44.3047 172.266 44.1016 172.047 43.8516L171.297 44.1094C171 43.4688 170.797 43.0547 170.688 42.8672C170.469 42.4922 170.305 42.1797 170.195 41.9297L169.984 41.5547L169.797 40.9219C169.422 40.25 169.164 39.6953 169.023 39.2578C168.82 39.1016 168.711 39.0078 168.695 38.9766C168.43 38.3359 168.164 37.6953 167.898 37.0547C167.273 35.9609 166.891 35.2188 166.75 34.8281L166.844 34.7578L167.195 34.6406C167.039 34.2812 166.93 34.0469 166.867 33.9375C166.68 33.5781 166.562 33.3281 166.516 33.1875C166.328 32.5156 166.188 32.1484 166.094 32.0859C166.016 32.0391 165.945 32.0156 165.883 32.0156C165.742 32.0156 165.578 32.0547 165.391 32.1328C164.562 30.5547 164.148 29.6016 164.148 29.2734C164.148 29.1484 164.156 28.9922 164.172 28.8047C163.891 28.4922 163.695 28.2812 163.586 28.1719C163.43 28 163.336 27.8281 163.305 27.6562C163.289 27.5938 163.273 27.3047 163.258 26.7891C162.992 26.4766 162.828 26.1406 162.766 25.7812C162.703 25.5 162.594 25.1953 162.438 24.8672L162.133 24.7969C161.711 23.7969 161.273 23.2969 160.82 23.2969C160.727 23.2969 160.625 23.3125 160.516 23.3438C160.641 23.7188 160.711 24.1406 160.727 24.6094L160.867 25.4766V26.5547C160.977 27.4141 161.031 27.8516 161.031 27.8672C161.031 27.9609 161.016 28.1172 160.984 28.3359C160.969 28.5078 160.961 28.6875 160.961 28.875C160.961 29.0312 160.992 29.5469 161.055 30.4219V30.4688L160.938 31.1719L160.609 31.4062L160.727 32.2031L160.398 32.3438V32.9297C160.914 32.9453 161.172 33.0859 161.172 33.3516C161.172 33.3516 161.164 33.5625 161.148 33.9844L161.102 34.4531V36.3984L161.031 37.2656L161.055 38.1562C161.055 38.2969 160.945 38.4844 160.727 38.7188L160.891 39.9844L160.539 40.125C160.477 40.3438 160.445 40.5391 160.445 40.7109C160.445 40.7578 160.57 41.1094 160.82 41.7656C160.82 41.7812 160.82 41.8047 160.82 41.8359C160.82 41.9453 160.797 42.1328 160.75 42.3984C160.703 42.6328 160.68 42.9219 160.68 43.2656C160.68 43.4531 160.688 43.6406 160.703 43.8281C160.719 44.2969 160.727 44.6328 160.727 44.8359C160.727 44.9766 160.664 45.3672 160.539 46.0078C160.445 46.5234 160.398 47.0625 160.398 47.625C160.398 48.0469 160.484 48.4609 160.656 48.8672C160.562 49.0547 160.414 49.2109 160.211 49.3359C159.555 49.7266 159.227 50.0625 159.227 50.3438C159.227 50.5312 159.359 50.7891 159.625 51.1172L160.094 50.5312H160.281L160.445 50.6953C160.398 50.8828 160.375 51.0391 160.375 51.1641C160.375 51.2891 160.461 51.5312 160.633 51.8906C160.648 51.9375 160.656 51.9609 160.656 51.9609C160.656 52.1797 160.32 52.4062 159.648 52.6406C159.023 52.8594 158.711 53.0938 158.711 53.3438C158.711 53.5469 158.953 53.7344 159.438 53.9062L160.727 54.3516C160.633 54.7109 160.586 54.9297 160.586 55.0078C160.586 55.1484 160.594 55.3047 160.609 55.4766L160.023 55.8516C160.086 56.0391 160.117 56.2031 160.117 56.3438C160.117 56.4219 160.094 56.4922 160.047 56.5547C160 56.6016 159.516 56.7734 158.594 57.0703L157.844 57.5156C156.844 57.8594 156.336 58.0312 156.32 58.0312C156.273 58.0312 156.18 58 156.039 57.9375C156.039 57.9062 156.039 57.8906 156.039 57.8906L156.016 57.6797V57.6562C156.016 57.5938 156.172 57.3828 156.484 57.0234C156.594 56.8828 156.922 56.625 157.469 56.25C157.844 56 158.07 55.7969 158.148 55.6406L158.523 54.9375L158.875 54.4688L157 53.3203C157 53.3203 157.062 53.2422 157.188 53.0859C157.406 52.8672 157.523 52.5078 157.539 52.0078C157.555 51.1172 157.562 50.6562 157.562 50.625L157.75 49.9219C157.781 49.8281 157.797 49.7109 157.797 49.5703C157.797 49.4766 157.758 49.2969 157.68 49.0312L157.844 48.4922L157.633 47.6719C157.93 46.5781 158.078 45.9766 158.078 45.8672C158.078 45.6328 158.016 45.1953 157.891 44.5547ZM209.219 42.5859C209.406 42.2891 209.586 42.0859 209.758 41.9766C209.883 41.8984 210.352 41.7734 211.164 41.6016C211.758 41.3047 212.156 41.125 212.359 41.0625C212.5 41.0312 212.969 40.9766 213.766 40.8984L214.516 40.6406L214.961 40.5938L215.383 40.5469H216.297L218.148 40.3125C218.695 40.2656 219.039 40.1953 219.18 40.1016C219.461 39.8984 219.602 39.6016 219.602 39.2109C219.602 39.1328 219.539 38.8828 219.414 38.4609L220.633 36.9375C220.633 36.9219 220.148 36.7656 219.18 36.4688C219.102 36.4375 218.867 36.4219 218.477 36.4219C217.805 35.5625 217.406 35.0859 217.281 34.9922C217.125 34.9297 216.531 34.8203 215.5 34.6641H214.75C214.406 34.5703 214.18 34.5234 214.07 34.5234C213.945 34.5234 213.766 34.5391 213.531 34.5703L213.086 34.0078C212.742 34.1328 212.477 34.3047 212.289 34.5234C212.133 34.6953 211.891 34.8438 211.562 34.9688C210.75 35.3125 210.078 35.6953 209.547 36.1172L209.219 36.3281C209.016 36.625 208.883 36.7891 208.82 36.8203C208.633 36.9297 208.414 36.9844 208.164 36.9844C208.07 36.9844 207.781 36.8984 207.297 36.7266C206.766 36.6016 206.438 36.5 206.312 36.4219C206.172 36.3281 205.992 36.1328 205.773 35.8359C206.039 35.6328 206.227 35.4844 206.336 35.3906C206.602 35.1562 206.781 35.0312 206.875 35.0156L207.977 34.7578L208.68 34.3828L210.18 33.9141L211.117 33.5156H212.078L213.133 33.2109L213.578 33.1875L214.398 33.0469C215.164 33.0625 215.648 33.0703 215.852 33.0703C216.07 33.0859 216.492 33.1953 217.117 33.3984L217.68 33.4688C218.289 33.5781 218.719 33.6562 218.969 33.7031C219.188 33.7188 219.469 33.8906 219.812 34.2188C219.547 34.4531 219.414 34.6484 219.414 34.8047C219.414 35.0234 219.508 35.1328 219.695 35.1328C219.82 35.1328 220 35.0703 220.234 34.9453C220.391 34.8828 220.609 34.8125 220.891 34.7344C221.094 34.9375 221.203 35.2031 221.219 35.5312L221.805 35.9531C221.836 36.125 221.852 36.2344 221.852 36.2812L221.781 37.1953C221.953 37.8828 222.125 38.3125 222.297 38.4844H222.391C222.438 38.8281 222.5 39.2031 222.578 39.6094C222.625 40.5156 222.656 41.1172 222.672 41.4141C222.312 41.6328 222.133 41.8438 222.133 42.0469C222.133 42.2812 222.344 42.4922 222.766 42.6797C222.781 42.8828 222.789 43.0547 222.789 43.1953C222.789 43.3359 222.758 43.6094 222.695 44.0156C222.68 44.1875 222.672 44.3594 222.672 44.5312C222.672 45.0469 222.758 45.6875 222.93 46.4531C222.648 46.7344 222.508 47.0156 222.508 47.2969C222.508 47.5312 222.641 47.8359 222.906 48.2109C222.938 48.2734 222.992 48.4219 223.07 48.6562C223.117 48.7656 223.203 48.9766 223.328 49.2891C223.156 49.4922 223.031 49.6875 222.953 49.875C222.828 49.9844 222.586 50.1094 222.227 50.25L221.336 50.6484L220.773 50.8125C220.195 51.0156 219.875 51.1172 219.812 51.1172C219.656 51.1172 219.484 51.0312 219.297 50.8594L219.648 49.2891C219.195 49.3984 218.539 49.6406 217.68 50.0156L217 50.1562C216.594 50.25 216.383 50.2969 216.367 50.2969L215.5 50.2031L214.633 50.6484L214.164 50.6953L212.266 51.0938L211.281 51.0234C210.797 51.1953 210.469 51.2812 210.297 51.2812C210.078 51.2812 209.469 51.1797 208.469 50.9766L207.484 50.8828L206.758 50.5781C206.211 50.375 205.805 50.1719 205.539 49.9688C205.305 49.7969 205.117 49.5 204.977 49.0781L204.438 48.8906C204.375 48.7344 204.305 48.4531 204.227 48.0469L203.992 47.0391V47.0156C203.977 46.875 204.078 46.6484 204.297 46.3359C204.469 46.1016 204.688 45.7031 204.953 45.1406C205.719 44.3906 206.227 43.9062 206.477 43.6875C206.695 43.5156 207.188 43.2734 207.953 42.9609C208.391 42.6797 208.664 42.5391 208.773 42.5391C208.898 42.5391 209.047 42.5547 209.219 42.5859ZM207.766 47.5547C207.641 47.7578 207.523 47.9688 207.414 48.1875C207.242 48.4688 207.164 48.6562 207.18 48.75L207.414 49.1953L208.07 48.6328C208.602 49.0078 208.969 49.2109 209.172 49.2422C209.75 49.3984 210.062 49.4844 210.109 49.5C210.203 49.5625 210.336 49.7266 210.508 49.9922C210.867 50.0391 211.109 50.0703 211.234 50.0859C211.359 50.1016 211.461 50.1094 211.539 50.1094C211.711 50.1094 211.922 50 212.172 49.7812C212.391 49.9375 212.578 50.0156 212.734 50.0156C212.766 50.0156 212.938 49.9141 213.25 49.7109L213.906 49.8516C213.906 49.8516 214.328 49.7031 215.172 49.4062L215.781 49.125L216.297 49.2188L217.188 48.8438L218.219 48.4453C218.484 48.0391 218.648 47.8047 218.711 47.7422C218.852 47.6016 219.125 47.4766 219.531 47.3672L219.672 46.6172C219.953 46.4609 220.125 46.2422 220.188 45.9609C219.969 45.8047 219.812 45.6406 219.719 45.4688C219.734 45.2031 219.742 45.0078 219.742 44.8828V44.5078C219.727 44.0859 219.711 43.7266 219.695 43.4297C219.68 43.3359 219.672 43.25 219.672 43.1719C219.672 42.9844 219.734 42.7109 219.859 42.3516C219.719 42.3359 219.539 42.2422 219.32 42.0703L218.312 42.0938L217.398 42.0469L216.695 42.0703H216.25C216.188 42.0703 215.953 41.9453 215.547 41.6953L215.031 41.8594C214.406 41.8594 213.945 41.9062 213.648 42C213.461 42.0781 213.305 42.1172 213.18 42.1172C213.148 42.1172 212.969 42.0703 212.641 41.9766C212.625 41.9766 212.609 41.9766 212.594 41.9766C212.516 41.9766 212.266 42.1172 211.844 42.3984C211.781 42.4453 211.375 42.6016 210.625 42.8672C209.625 43.3047 208.906 43.7188 208.469 44.1094C208.422 44.1562 208.25 44.3906 207.953 44.8125C207.859 44.9531 207.586 45.0859 207.133 45.2109C207.07 45.3203 207.039 45.4062 207.039 45.4688C207.039 45.5156 207.102 45.6094 207.227 45.75L207.391 47.0156C207.422 47.125 207.547 47.3047 207.766 47.5547ZM229.375 34.875C229.469 34.5938 229.617 34.3359 229.82 34.1016C229.977 33.9297 230.383 33.6875 231.039 33.375C231.711 32.9531 232.094 32.7422 232.188 32.7422C232.469 32.7422 232.68 32.8438 232.82 33.0469L232.914 33.4453L233.102 34.1719C233.055 34.3438 233.031 34.4766 233.031 34.5703C233.031 34.7109 233.117 34.875 233.289 35.0625C233.602 34.9688 234.023 34.7734 234.555 34.4766L235.539 34.1484L236.523 33.4922L237.156 33.2344C237.5 33.0625 237.688 32.9766 237.719 32.9766C237.719 32.9766 237.891 33.0078 238.234 33.0703C238.266 33.0703 238.289 33.0703 238.305 33.0703C238.383 33.0703 238.914 32.9062 239.898 32.5781C240.008 32.5469 240.242 32.5312 240.602 32.5312C240.867 32.5312 241.055 32.5703 241.164 32.6484C241.18 32.6641 241.344 32.8203 241.656 33.1172C241.844 33.1641 241.953 33.1875 241.984 33.1875C242.016 33.1875 242.242 33.0781 242.664 32.8594C242.695 32.8438 242.734 32.8359 242.781 32.8359C242.984 32.8359 243.219 32.9531 243.484 33.1875C243.734 33.4062 243.914 33.7422 244.023 34.1953C243.789 34.4297 243.32 34.7969 242.617 35.2969C242.273 35.7344 242.023 35.9531 241.867 35.9531C241.617 35.9531 241.289 35.7031 240.883 35.2031C240.602 35.2344 240.367 35.25 240.18 35.25C239.977 35.25 239.641 35.1562 239.172 34.9688C238.797 34.8281 238.414 34.7344 238.023 34.6875C237.867 35 237.609 35.1719 237.25 35.2031C236.812 35.2344 236.539 35.2656 236.43 35.2969C235.805 35.4844 235.492 35.5781 235.492 35.5781C235.43 35.5781 235.305 35.5234 235.117 35.4141C234.805 35.6953 234.258 36.1172 233.477 36.6797C232.977 37.0391 232.734 37.6719 232.75 38.5781V38.6484C232.75 38.8359 232.75 39.0859 232.75 39.3984C232.766 39.6797 232.773 39.9141 232.773 40.1016C232.773 40.2734 232.594 40.5312 232.234 40.875C232.5 41.1562 232.633 41.3984 232.633 41.6016C232.633 41.7109 232.617 41.8438 232.586 42L232.938 42.0938L233.008 42.7969L233.125 46.9922L233.031 47.25L232.422 47.5781C231.547 47.75 231.109 47.8672 231.109 47.9297C231.109 47.9922 231.602 48.0938 232.586 48.2344L232.984 48.1406C233.141 48.6562 233.219 49.0078 233.219 49.1953C233.219 49.5547 233.039 49.8359 232.68 50.0391C232.539 50.1172 232.141 50.1953 231.484 50.2734C231.359 50.3047 231.023 50.5 230.477 50.8594C230.383 50.9219 230.273 50.9531 230.148 50.9531C229.773 50.9531 229.586 50.7891 229.586 50.4609C229.586 50.3672 229.703 49.9219 229.938 49.125C229.969 49.0312 229.984 48.9375 229.984 48.8438C229.984 48.8125 229.945 48.4609 229.867 47.7891C229.867 47.7422 229.898 47.6094 229.961 47.3906L230.523 47.2266C230.539 47.0859 230.547 46.9609 230.547 46.8516C230.547 46.6484 230.43 46.4062 230.195 46.125C230.195 45.9062 230.195 45.7109 230.195 45.5391C230.195 45.3984 230.148 45.0312 230.055 44.4375C230.102 43.9219 230.125 43.4844 230.125 43.125C230.703 42.9219 230.992 42.6719 230.992 42.375C230.992 42.2812 230.969 42.1562 230.922 42C230.734 42.0469 230.578 42.0703 230.453 42.0703C230.344 42.0703 230.211 42.0078 230.055 41.8828C230.055 41.5703 230.055 41.2266 230.055 40.8516V40.3594V39.7266V39.5391C230.055 39.4141 230.047 39.2734 230.031 39.1172C230.031 38.9609 230.031 38.8359 230.031 38.7422C230.031 38.4922 230.133 38.1562 230.336 37.7344C230.133 37.5625 230.016 37.4141 229.984 37.2891C229.969 37.2422 229.938 36.7344 229.891 35.7656C229.875 35.5781 229.703 35.2812 229.375 34.875ZM245.312 13.4531C245.656 13.2969 246.406 12.8203 247.562 12.0234C248.125 11.8516 248.57 11.6719 248.898 11.4844C249.055 11.5312 249.133 11.625 249.133 11.7656C249.133 11.8125 249.031 12.1953 248.828 12.9141C248.812 12.9453 248.805 13 248.805 13.0781V13.2422V13.4062L248.898 16.5C248.93 16.625 248.547 16.8594 247.75 17.2031C247.297 17.4062 247.07 17.6719 247.07 18C247.07 18.4531 247.703 19.125 248.969 20.0156L248.242 20.2266L248.289 22.2891C248.43 22.3672 248.523 22.4062 248.57 22.4062C248.867 22.4844 249.016 22.5781 249.016 22.6875C249.016 22.8125 248.984 23.0625 248.922 23.4375C248.906 23.5312 248.898 23.6094 248.898 23.6719C248.898 23.75 248.953 24.1797 249.062 24.9609V31.4766C249.062 31.7109 249 32.0625 248.875 32.5312C248.844 32.6406 248.828 32.7812 248.828 32.9531C248.828 33.4375 249.016 33.8984 249.391 34.3359C249.391 34.4766 249.375 34.6328 249.344 34.8047C249.297 35.0391 249.273 35.2422 249.273 35.4141V35.4375C249.273 36.2188 249.305 36.6797 249.367 36.8203C249.445 36.9922 249.484 37.0781 249.484 37.0781L248.031 38.9297L249.391 39.7969C249.25 40.6562 249.18 41.1016 249.18 41.1328C249.18 41.3672 249.289 41.6875 249.508 42.0938C249.664 42.0312 250.031 41.7578 250.609 41.2734L252.039 40.2656L254.242 37.9688L255.109 37.125L255.672 36.5391L257.102 35.0859C257.914 34.0859 258.43 33.4844 258.648 33.2812C259.367 32.6562 259.977 32.2344 260.477 32.0156C260.695 32.25 261 32.4531 261.391 32.625C261.422 32.8281 261.438 32.9844 261.438 33.0938C261.438 33.5781 261.242 34.0078 260.852 34.3828C260.633 34.6016 260.289 34.7422 259.82 34.8047C259.492 35.2578 259.227 35.4922 259.023 35.5078C258.602 35.5547 258.312 35.6328 258.156 35.7422C258.219 36.0078 258.25 36.2344 258.25 36.4219C258.25 36.7188 257.922 37.0781 257.266 37.5C256.969 37.6875 256.758 37.8438 256.633 37.9688C256.398 38.1875 256.242 38.3203 256.164 38.3672C256.133 38.4141 255.938 38.4453 255.578 38.4609C255.516 38.7578 255.438 38.9766 255.344 39.1172C255.297 39.1641 254.992 39.3594 254.43 39.7031C253.461 40.5156 252.898 40.9922 252.742 41.1328C252.57 41.2891 252.445 41.5 252.367 41.7656C253.039 42.5 253.578 42.9922 253.984 43.2422C255.141 43.9766 255.727 44.3906 255.742 44.4844C255.82 44.7656 255.961 44.9922 256.164 45.1641C256.148 45.2422 256.141 45.3125 256.141 45.375C256.141 45.5 256.227 45.6406 256.398 45.7969C256.898 46.2188 257.164 46.4375 257.195 46.4531C257.508 46.3594 257.75 46.2578 257.922 46.1484C259.297 46.7734 260.25 47.1562 260.781 47.2969L260.711 47.8594C261.008 48.1094 261.242 48.2344 261.414 48.2344C261.477 48.2344 261.695 48.1641 262.07 48.0234L262.727 48.3047C263.008 48.3984 263.195 48.5156 263.289 48.6562C263.523 48.6094 263.727 48.5859 263.898 48.5859C263.945 48.5859 264 48.5938 264.062 48.6094C264.328 48.6719 264.469 48.7031 264.484 48.7031C264.484 48.7031 264.734 48.6172 265.234 48.4453L265.352 48.5625C265.367 48.6094 265.375 48.6406 265.375 48.6562C265.375 48.7031 265.25 49.0625 265 49.7344C264.812 50.2344 264.422 50.6328 263.828 50.9297C263.656 50.9922 263.281 51.0391 262.703 51.0703C262.234 51.2578 261.969 51.3516 261.906 51.3516C261.797 51.3516 261.461 51.2422 260.898 51.0234C259.945 50.7734 259.344 50.5859 259.094 50.4609C258.609 50.2266 258.297 50.0703 258.156 49.9922C258.203 49.7891 258.227 49.6172 258.227 49.4766C258.227 49.3672 258.195 49.2734 258.133 49.1953C257.992 49.0078 257.828 48.9141 257.641 48.9141C257.625 48.9141 257.602 48.9141 257.57 48.9141C257.023 49.0078 256.742 49.0547 256.727 49.0547C256.617 49.0547 256.445 48.9453 256.211 48.7266C255.883 48.4453 255.453 48.125 254.922 47.7656L253.68 46.7109L252.906 46.4531C252.406 45.9375 251.641 45.2656 250.609 44.4375C249.984 44.0156 249.633 43.8047 249.555 43.8047C249.352 43.8047 249.25 43.9297 249.25 44.1797C249.25 44.3047 249.281 44.4766 249.344 44.6953C249.406 44.9766 249.438 45.7422 249.438 46.9922L249.695 49.1484C249.695 49.1484 249.68 49.2734 249.648 49.5234C249.633 49.6641 249.617 49.875 249.602 50.1562C249.383 50.3281 249.258 50.4219 249.227 50.4375C249.195 50.4531 248.852 50.5391 248.195 50.6953C247.57 50.8516 246.992 51.0625 246.461 51.3281L246.227 50.6719V50.6484C246.445 49.5078 246.594 48.4141 246.672 47.3672L246.789 44.0156L247.281 44.0859L247.562 43.4062C247.141 43.1094 246.93 42.8516 246.93 42.6328C246.93 42.3203 247.117 41.8516 247.492 41.2266L246.812 40.8516C247.656 40.5391 248.078 40.2422 248.078 39.9609C248.078 39.8047 247.93 39.6328 247.633 39.4453C247.055 39.0859 246.75 38.8516 246.719 38.7422C246.719 38.7422 246.727 38.6719 246.742 38.5312C246.773 38.4219 246.789 38.2656 246.789 38.0625V38.0391C246.789 37.9922 246.766 37.7344 246.719 37.2656C246.688 37.0469 246.672 36.7656 246.672 36.4219C246.672 36.25 246.68 35.9844 246.695 35.625L247.352 35.1094V34.9453L246.719 34.5L246.508 30.5859L246.297 29.0625C246.781 28.6406 247.023 28.2969 247.023 28.0312C247.023 27.8125 246.789 27.5469 246.32 27.2344C246.383 27.0312 246.414 26.9219 246.414 26.9062C246.117 25.0469 245.969 24.0547 245.969 23.9297C245.969 23.7891 246.062 23.1875 246.25 22.125L246.18 21.7266C246.164 21.5234 246 21.3359 245.688 21.1641C245.703 21.0391 245.711 20.9375 245.711 20.8594C245.711 20.7812 245.648 20.5859 245.523 20.2734L245.57 19.4766C245.43 18.2734 245.359 17.6328 245.359 17.5547C245.359 17.4297 245.367 17.2578 245.383 17.0391C245.398 16.6641 245.406 16.2656 245.406 15.8438C245.406 15.5 245.359 15.2578 245.266 15.1172C245.25 15.0859 245.242 15.0703 245.242 15.0703L245.453 14.2266C245.453 14.2266 245.445 14.2109 245.43 14.1797C245.352 14.0391 245.312 13.7969 245.312 13.4531ZM282.062 33.5625L282.812 33.0938C283.047 33.375 283.211 33.5547 283.305 33.6328C283.336 33.6641 283.5 33.7422 283.797 33.8672C283.953 33.9453 284.625 34.6016 285.812 35.8359C286.188 36.2266 286.445 36.5938 286.586 36.9375C286.711 37.2344 286.844 37.5938 286.984 38.0156C287.078 38.2344 287.188 38.5156 287.312 38.8594L287.148 39.0234C286.977 38.9922 286.742 38.9219 286.445 38.8125L285.555 39.1406L284.758 39L284.055 39.1875C283.086 38.5 282.578 38.1562 282.531 38.1562C282.438 38.1562 282.07 38.4766 281.43 39.1172C280.43 38.9297 279.898 38.8359 279.836 38.8359C279.586 38.8359 279.289 38.8594 278.945 38.9062L278.828 38.8125C278.578 38.8438 277.898 38.8594 276.789 38.8594L275.922 38.9531L274.844 39.0469L273.742 39.2344L272.758 39.2109C271.852 39.4922 271.234 39.6562 270.906 39.7031C270.828 40.2344 270.75 40.6016 270.672 40.8047C270.578 41.0391 270.391 41.2969 270.109 41.5781C270.609 41.9219 270.875 42.1641 270.906 42.3047C271.062 43.3047 271.211 43.9766 271.352 44.3203L271.773 44.5547L271.656 45.4219L272.383 45.6094C272.539 46.25 272.742 46.6797 272.992 46.8984C273.227 47.1016 273.617 47.2422 274.164 47.3203C274.242 47.8047 274.367 48.0938 274.539 48.1875C274.664 48.2812 274.945 48.3438 275.383 48.375L275.781 48.9844C275.953 48.9531 276.102 48.9375 276.227 48.9375C276.32 48.9375 276.789 49.1328 277.633 49.5234C277.82 49.6172 278.023 49.6641 278.242 49.6641C278.445 49.6641 278.844 49.5703 279.438 49.3828L280.938 49.2188L282.086 48.8906C282.633 48.8594 283 48.8125 283.188 48.75C283.453 48.6406 283.938 48.3672 284.641 47.9297C285.328 47.5078 285.727 47.2188 285.836 47.0625C286.117 46.7344 286.383 46.3594 286.633 45.9375C286.758 45.75 286.977 45.6562 287.289 45.6562C287.43 45.6562 287.633 45.7578 287.898 45.9609C287.789 46.5234 287.688 46.8906 287.594 47.0625C286.938 48.1719 286.523 48.9062 286.352 49.2656C286.148 49.1719 285.977 49.125 285.836 49.125C285.742 49.125 285.484 49.2812 285.062 49.5938C284.781 49.7812 284.43 49.8906 284.008 49.9219C283.039 50.1875 282.367 50.3438 281.992 50.3906C281.352 50.4531 280.945 50.5078 280.773 50.5547C280.289 50.7109 280.039 50.7891 280.023 50.7891L278.641 50.5781L277.82 50.7188L277.422 50.7422C277.047 50.7891 276.758 50.8125 276.555 50.8125C276.352 50.8125 275.781 50.7578 274.844 50.6484C274.547 50.6172 274.398 50.6016 274.398 50.6016L273.906 50.2969C272.734 49.9375 272.086 49.7266 271.961 49.6641C271.883 49.6172 271.617 49.3828 271.164 48.9609C271.133 48.9297 270.859 48.7578 270.344 48.4453C269.906 48.1797 269.672 47.9766 269.641 47.8359L269.219 47.0859C269.156 46.9609 268.891 46.6641 268.422 46.1953C268.578 45.9453 268.656 45.7578 268.656 45.6328C268.656 45.5859 268.453 45.1484 268.047 44.3203C267.938 44.1016 267.883 43.4375 267.883 42.3281C267.883 41.9844 267.992 41.4219 268.211 40.6406C268.398 40.0312 268.531 39.6797 268.609 39.5859L269.406 38.6484L269.922 37.5469C270.453 37.0469 271.062 36.4844 271.75 35.8594L273.461 34.8047L275.195 33.6094L275.828 33.4922L277.609 32.9297L278.758 32.8359C279.68 32.4922 280.188 32.3203 280.281 32.3203C281.156 32.3203 281.75 32.7344 282.062 33.5625ZM279.344 37.0781L279.742 37.5703C280.055 37.5078 280.266 37.4688 280.375 37.4531C280.797 37.3906 281.219 37.2812 281.641 37.125L282.977 37.2422C282.992 37.2422 283.031 37.1641 283.094 37.0078C283.109 36.9141 283.117 36.8359 283.117 36.7734C283.117 36.6328 283.023 36.4609 282.836 36.2578C282.805 36.2266 282.727 36.1328 282.602 35.9766C282.227 35.4766 281.992 35.2422 281.898 35.2734L281.125 34.8984C281.031 34.8516 280.883 34.6719 280.68 34.3594C280.227 34.2969 279.453 34.2656 278.359 34.2656L277.891 34.2422L277.094 34.7109C277.062 34.7422 276.633 34.8516 275.805 35.0391C275.148 35.2734 274.57 35.5 274.07 35.7188C273.961 35.7969 273.656 36.0625 273.156 36.5156C273.062 36.5938 272.883 36.7344 272.617 36.9375V37.0781L272.664 37.125L274.375 37.8047L274.891 38.3203L275.805 37.2188C275.883 37.1562 275.969 37.125 276.062 37.125C276.109 37.125 276.492 37.2266 277.211 37.4297C277.227 37.4297 277.242 37.4297 277.258 37.4297C277.461 37.4297 277.906 37.3516 278.594 37.1953C278.75 37.1484 279 37.1094 279.344 37.0781ZM292.305 34.3594C292.43 33.75 292.641 33.4453 292.938 33.4453H292.961L294.109 33.5156H294.156C295.031 33.3906 295.531 33.3203 295.656 33.3047C295.656 33.0234 295.656 32.8359 295.656 32.7422C295.656 31.2734 295.625 30.0703 295.562 29.1328C295.531 28.7266 295.438 28.3594 295.281 28.0312L295.047 27.5391C294.984 27.4141 294.953 27.2812 294.953 27.1406C294.953 26.9062 295.141 26.625 295.516 26.2969C296.094 25.7656 296.828 25.4141 297.719 25.2422C297.922 24.8203 298.141 24.6094 298.375 24.6094C298.469 24.6094 298.547 24.6484 298.609 24.7266C298.828 24.9609 298.938 25.2656 298.938 25.6406C298.938 25.6562 298.867 26.8906 298.727 29.3438C298.539 29.9844 298.422 30.3594 298.375 30.4688C298.312 30.6875 298.133 30.9141 297.836 31.1484C297.836 31.4609 297.883 31.7656 297.977 32.0625H298.516L298.375 33.2578C298.766 33.2891 299.578 33.4766 300.812 33.8203C300.891 33.8359 301.156 33.8438 301.609 33.8438C301.891 33.8438 302.352 33.75 302.992 33.5625L304.539 33.4219C305.336 33.1094 305.805 32.9531 305.945 32.9531C306.148 32.9531 306.398 32.9766 306.695 33.0234C306.664 33.4609 306.617 33.7734 306.555 33.9609C306.492 34.1953 306 34.5938 305.078 35.1562C304.859 35.2812 304.703 35.3984 304.609 35.5078C304.375 35.7891 304.25 35.9297 304.234 35.9297C304.156 35.9922 303.969 36.0234 303.672 36.0234C303.438 36.0234 303.266 35.9922 303.156 35.9297L302.195 35.4141L301.609 35.2734L300.906 34.7578L299.711 35.6719L298.68 35.5312C298.602 35.5312 298.445 35.6094 298.211 35.7656C298.336 36.5156 298.398 37.1484 298.398 37.6641C298.398 37.9141 298.391 38.2812 298.375 38.7656C297.797 38.8594 297.508 39.0938 297.508 39.4688C297.508 39.6094 297.539 39.7812 297.602 39.9844C297.945 40.0156 298.234 40.0625 298.469 40.125L298.422 43.0547C298.188 42.9922 297.992 42.9609 297.836 42.9609C297.555 42.9609 297.414 43.0781 297.414 43.3125C297.414 43.5 297.484 43.7266 297.625 43.9922C297.844 43.8516 298.031 43.7812 298.188 43.7812C298.422 43.7812 298.539 43.9297 298.539 44.2266L298.469 45.1641V45.2109C298.5 45.8516 298.523 46.3125 298.539 46.5938C298.57 46.8906 298.664 47.1875 298.82 47.4844L299.102 47.9766C299.133 48.0391 299.148 48.1328 299.148 48.2578C299.148 48.3984 299.133 48.5781 299.102 48.7969C299.586 49.0781 300.125 49.2188 300.719 49.2188C301.219 49.2188 301.719 49.0938 302.219 48.8438C302.625 48.625 302.844 48.5 302.875 48.4688L304.164 47.2969C304.805 46.7656 305.195 46.5 305.336 46.5C305.477 46.5 305.672 46.5703 305.922 46.7109C305.875 47.0078 305.844 47.2109 305.828 47.3203C305.719 48.1328 305.609 48.6094 305.5 48.75C305.391 48.875 304.914 49.0703 304.07 49.3359C303.43 49.6641 302.461 50.0469 301.164 50.4844L300.367 50.7422C299.836 51.0391 299.531 51.1875 299.453 51.1875C299.312 51.1875 299.156 51.0469 298.984 50.7656L298.562 50.6484L298.305 51.2344C298.086 51.2656 297.898 51.2812 297.742 51.2812C297.336 51.2812 296.852 51.0156 296.289 50.4844C296.039 50.2344 295.836 49.9766 295.68 49.7109C295.664 49.6953 295.602 49.4922 295.492 49.1016C295.32 48.5859 295.234 48.2891 295.234 48.2109C295.234 48.0703 295.25 47.8438 295.281 47.5312C295.312 47.2812 295.328 46.7578 295.328 45.9609C295.344 45.4453 295.484 45.0547 295.75 44.7891C295.656 44.4922 295.609 44.1328 295.609 43.7109C295.531 42.9922 295.484 41.625 295.469 39.6094C295.844 39.375 296.031 39.1484 296.031 38.9297C296.031 38.8047 296.016 38.6562 295.984 38.4844L295.305 38.3203L295.258 38.1094V38.0859C295.258 38.0078 295.281 37.8438 295.328 37.5938C295.422 37.1875 295.469 36.4844 295.469 35.4844C294.828 35.3438 294.359 35.2734 294.062 35.2734C293.969 35.2734 293.562 35.3203 292.844 35.4141L292.352 35.4609C291.914 35.6016 291.68 35.6719 291.648 35.6719C291.43 35.6719 291.32 35.5703 291.32 35.3672C291.32 35.0547 291.648 34.7188 292.305 34.3594Z" fill="#BCCBE9"/>
</svg>
